<?xml version="1.0" encoding="UTF-8" standalone="no"?>
<svg
   xmlns:dc="http://purl.org/dc/elements/1.1/"
   xmlns:cc="http://creativecommons.org/ns#"
   xmlns:rdf="http://www.w3.org/1999/02/22-rdf-syntax-ns#"
   xmlns:svg="http://www.w3.org/2000/svg"
   xmlns="http://www.w3.org/2000/svg"
   xmlns:xlink="http://www.w3.org/1999/xlink"
   xmlns:sodipodi="http://sodipodi.sourceforge.net/DTD/sodipodi-0.dtd"
   xmlns:inkscape="http://www.inkscape.org/namespaces/inkscape"
   width="19.999998"
   height="20.813372"
   id="svg2"
   version="1.1"
   inkscape:version="0.48.4 r9939"
   sodipodi:docname="gear-private.svg">
  <sodipodi:namedview
     pagecolor="#ffffff"
     bordercolor="#666666"
     borderopacity="1"
     objecttolerance="10"
     gridtolerance="10"
     guidetolerance="10"
     inkscape:pageopacity="0"
     inkscape:pageshadow="2"
     inkscape:window-width="1356"
     inkscape:window-height="712"
     id="namedview29"
     showgrid="false"
     fit-margin-top="0"
     fit-margin-left="0"
     fit-margin-right="0"
     fit-margin-bottom="0"
     inkscape:zoom="18.01"
     inkscape:cx="3.2167605"
     inkscape:cy="8.1211835"
     inkscape:window-x="0"
     inkscape:window-y="26"
     inkscape:window-maximized="1"
     inkscape:current-layer="svg2" />
  <defs
     id="defs4">
    <linearGradient
       id="linearGradient2254">
      <stop
         offset="0"
         id="stop2256"
         stop-color="#bedcdc" />
      <stop
         id="stop2264"
         offset="0.5"
         stop-opacity="0.741497"
         stop-color="#8e9e9e" />
      <stop
         offset="1"
         id="stop2258"
         stop-opacity="0.839216"
         stop-color="#404f5c" />
    </linearGradient>
    <radialGradient
       xlink:href="#linearGradient2254"
       id="radialGradient2340"
       gradientUnits="userSpaceOnUse"
       gradientTransform="matrix(-0.1055661,-0.930902,0.9936313,-0.1126799,45.963501,812.42287)"
       cx="380"
       cy="389.50504"
       fx="380"
       fy="389.50504"
       r="148.85715" />
    <filter
       id="filter3340"
       color-interpolation-filters="sRGB">
      <feGaussianBlur
         stdDeviation="3.959091"
         id="feGaussianBlur3342" />
    </filter>
    <filter
       id="filter3390"
       color-interpolation-filters="sRGB">
      <feGaussianBlur
         stdDeviation="10.093933"
         id="feGaussianBlur3392" />
    </filter>
    <radialGradient
       xlink:href="#linearGradient2254"
       id="radialGradient3406"
       gradientUnits="userSpaceOnUse"
       gradientTransform="matrix(0.08685949,-0.5807721,0.6221042,0.09357629,261.99206,772.77917)"
       cx="380"
       cy="389.50504"
       fx="380"
       fy="389.50504"
       r="148.85715" />
    <radialGradient
       inkscape:collect="always"
       xlink:href="#linearGradient2254"
       id="radialGradient3844"
       gradientUnits="userSpaceOnUse"
       gradientTransform="matrix(-0.1055661,-0.930902,0.9936313,-0.1126799,45.963501,812.42287)"
       cx="380"
       cy="389.50504"
       fx="380"
       fy="389.50504"
       r="148.85715" />
  </defs>
  <metadata
     id="metadata7">image/svg+xml<rdf:RDF>
  <cc:Work
     rdf:about="">
    <dc:format>image/svg+xml</dc:format>
    <dc:type
       rdf:resource="http://purl.org/dc/dcmitype/StillImage" />
    <dc:title></dc:title>
  </cc:Work>
</rdf:RDF>
</metadata>
  <g
     externalResourcesRequired="false"
     id="svg_1"
     transform="matrix(0.05453938,0,0,0.05453938,-3.7339591,-4.1482805)">
    <path
       id="path3344"
       d="m 273.64575,100.28572 c -1.83999,14.50951 -13.68808,25.72278 -28.0379,25.72278 -13.62062,1e-5 -25.00867,-10.08696 -27.70355,-23.52083 -9.98026,2.25144 -19.60497,5.48497 -28.80216,9.58349 5.04047,13.42818 0.10494,29.07613 -12.18001,36.50733 -11.40657,6.89987 -25.51623,4.54897 -34.34286,-4.85429 -6.19029,6.03032 -11.95076,12.56361 -17.17143,19.54231 10.99054,8.94298 14.27017,25.25282 7.11697,38.23386 -6.82252,12.38085 -20.89435,17.67413 -33.363707,13.36184 -2.988411,9.62474 -5.180817,19.62908 -6.472122,29.9265 14.323479,1.46158 25.530259,14.11177 25.530259,29.50115 1e-5,14.49661 -9.94443,26.55203 -23.070367,29.12579 0.976646,4.6113 2.108833,9.15143 3.439056,13.61203 2.567531,-0.70816 5.193061,-1.03711 7.785651,-0.97583 9.55876,0.22586 18.77952,5.53451 23.90628,14.8381 6.97815,12.66336 4.02266,28.48862 -6.32884,37.55826 5.7758,7.96533 12.21141,15.38037 19.22531,22.14462 5.3331,-6.76858 13.16623,-10.56891 21.23143,-10.75952 5.00697,-0.11831 10.08411,1.16489 14.73543,3.97852 12.89683,7.80136 17.70827,24.64599 11.36801,38.4841 8.76927,3.80392 17.92316,6.82162 27.3931,8.95795 2.69488,-13.43387 14.08293,-23.52085 27.70355,-23.52085 14.34979,0 26.19791,11.21326 28.0379,25.72278 8.57504,-1.22467 16.93915,-3.14288 25.02875,-5.73007 -4.23199,-13.11411 0.80377,-27.97122 12.68155,-35.15613 4.22848,-2.55783 8.83505,-3.83017 13.39804,-3.95352 9.17386,-0.24796 18.17746,4.2062 23.76294,12.41098 8.15765,-6.46829 15.70834,-13.74188 22.54495,-21.69419 -9.80578,-9.15679 -12.48404,-24.57431 -5.66009,-36.95773 5.12674,-9.30359 14.34747,-14.61224 23.90625,-14.83816 3.81311,-0.0901 7.68597,0.63446 11.36801,2.22699 3.30392,-8.57059 5.95218,-17.49665 7.88116,-26.69867 -12.30227,-3.22153 -21.42248,-14.89112 -21.42248,-28.77546 0,-14.76654 10.32211,-27.01707 23.81076,-29.27594 -1.87134,-15.08271 -5.6529,-29.53184 -11.08145,-43.08816 -13.20404,6.62805 -29.2649,1.59514 -36.70722,-11.91055 -6.95773,-12.6263 -4.02487,-28.40068 6.2572,-37.48322 -6.17251,-6.96576 -12.89816,-13.40109 -20.10897,-19.19198 -8.67887,10.70776 -23.68293,13.75241 -35.70414,6.48074 -11.29809,-6.83423 -16.40164,-20.61442 -13.23086,-33.22944 -8.61682,-2.86652 -17.54706,-4.99503 -26.7244,-6.30558 z m -21.82847,107.09485 c 0.97931,0 1.94645,0.0237 2.91365,0.0751 3.86871,0.20586 7.64557,0.82242 11.27249,1.80159 0.90674,0.24463 1.81003,0.51091 2.6987,0.80072 1.77725,0.58 3.5086,1.24848 5.20636,2.00177 0.8489,0.37641 1.68155,0.78102 2.50763,1.20107 0.41305,0.21002 0.83456,0.43028 1.24191,0.65057 0.0569,0.0306 0.11035,0.0693 0.16717,0.10008 0.55408,0.30011 1.10462,0.60738 1.64786,0.92583 0.59818,0.35233 1.18207,0.70325 1.76731,1.07596 1.5606,0.99451 3.08041,2.06004 4.53766,3.20283 0.5465,0.4283 1.09216,0.87809 1.62399,1.32618 0.32672,0.27587 0.65848,0.54249 0.97919,0.82572 0.43298,0.3814 0.84393,0.78154 1.26577,1.17605 0.79059,0.73938 1.56815,1.49287 2.31659,2.27702 0.48163,0.50491 0.94516,1.02873 1.40906,1.55137 0.008,0.009 0.0161,0.0163 0.0239,0.025 0.21444,0.24198 0.43414,0.47997 0.6448,0.72565 0.54056,0.63046 1.06159,1.27239 1.57626,1.9267 0.14444,0.18368 0.28751,0.36499 0.42984,0.55049 0.42902,0.55789 0.8559,1.12735 1.26578,1.70151 0.51084,0.71681 1.00043,1.4357 1.48075,2.17694 0.67089,1.03544 1.32507,2.097 1.93444,3.17781 0.34726,0.61542 0.67661,1.2473 1.00306,1.87666 0.87432,1.68558 1.6697,3.40071 2.38824,5.1796 0.31494,0.7792 0.62387,1.55618 0.90753,2.35206 0.029,0.0813 0.043,0.16881 0.0717,0.25023 0.25189,0.71634 0.49048,1.44786 0.71649,2.17693 0.031,0.10011 0.0649,0.1999 0.0955,0.30026 0.0879,0.28891 0.155,0.58498 0.2388,0.87578 0.20578,0.71422 0.41647,1.42663 0.59708,2.15192 0.0497,0.19958 0.0955,0.40013 0.14331,0.60052 0.12231,0.51254 0.22479,1.03368 0.33435,1.55138 0.13516,0.63884 0.26672,1.28035 0.38211,1.92669 0.006,0.0338 0.0179,0.0663 0.0239,0.1001 0.0102,0.0579 0.0138,0.1172 0.0239,0.17516 0.12982,0.74685 0.25534,1.49569 0.35821,2.25198 0.007,0.0504 0.0171,0.0997 0.0239,0.15015 0.0221,0.16552 0.0269,0.33447 0.0478,0.50042 0.0876,0.69852 0.17462,1.39594 0.23883,2.10187 0.0797,0.87732 0.14807,1.76468 0.19104,2.65238 0.0483,1.00522 0.0716,2.03494 0.0716,3.05267 0,2.05212 -0.0927,4.05661 -0.28656,6.05539 -8.2e-4,0.008 7.7e-4,0.0168 0,0.025 -0.0966,0.991 -0.21579,1.97657 -0.35824,2.95261 -0.001,0.008 10e-4,0.0169 0,0.025 -0.14285,0.97592 -0.31394,1.94284 -0.50156,2.90256 -0.002,0.008 0.002,0.017 0,0.025 -0.094,0.4798 -0.20169,0.95087 -0.31045,1.42627 -0.10514,0.47647 -0.21836,0.95423 -0.33438,1.42624 -0.002,0.008 0.002,0.0172 0,0.0251 -0.23191,0.94208 -0.4899,1.87903 -0.76422,2.80249 -0.002,0.008 0.002,0.0174 0,0.025 -0.55164,1.85425 -1.19498,3.68317 -1.91059,5.4548 -0.71853,1.77887 -1.51391,3.49402 -2.38824,5.1796 -0.003,0.006 0.003,0.0185 0,0.025 -0.87158,1.67884 -1.82529,3.30298 -2.84198,4.87931 -0.004,0.006 0.004,0.0192 0,0.025 -0.5069,0.78528 -1.0351,1.54401 -1.57627,2.30203 -0.004,0.005 0.004,0.0196 0,0.025 -0.54153,0.75802 -1.12094,1.4975 -1.69561,2.22699 -0.004,0.005 0.004,0.02 0,0.025 -2.31165,2.93247 -4.89057,5.63614 -7.69016,8.05713 -2.80401,2.42484 -5.83404,4.57382 -9.05142,6.4057 -1.6088,0.91605 -3.26968,1.74942 -4.96753,2.5022 -1.69775,0.75272 -3.42911,1.42227 -5.20636,2.0018 -0.88867,0.2898 -1.79196,0.55606 -2.6987,0.80069 -3.62692,0.97836 -7.40378,1.59595 -11.27249,1.80161 -0.96719,0.0514 -1.93434,0.0751 -2.91365,0.0751 -0.97933,0 -1.94647,-0.0236 -2.91367,-0.0751 -3.86871,-0.20588 -7.64557,-0.82242 -11.27247,-1.80161 -0.90677,-0.24463 -1.81005,-0.51089 -2.6987,-0.80069 -1.77729,-0.58002 -3.50862,-1.2485 -5.20636,-2.0018 -1.69785,-0.75278 -3.35874,-1.58615 -4.96755,-2.5022 -0.80435,-0.45828 -1.58404,-0.95401 -2.36435,-1.45129 -0.7803,-0.49725 -1.5594,-1.01779 -2.31659,-1.55136 -0.75512,-0.53464 -1.4924,-1.08042 -2.22107,-1.65146 -1.45735,-1.14218 -2.85882,-2.34787 -4.20329,-3.62821 -0.66798,-0.63616 -1.31999,-1.30835 -1.95836,-1.97677 -0.64647,-0.67691 -1.2718,-1.34305 -1.8867,-2.05182 -0.004,-0.005 0.004,-0.0204 0,-0.025 -0.61098,-0.70462 -1.2126,-1.41703 -1.79118,-2.15189 -0.57865,-0.7345 -1.15059,-1.48856 -1.69565,-2.25198 -0.545,-0.7638 -1.06601,-1.53559 -1.57623,-2.32709 -1.02056,-1.58225 -1.96769,-3.21875 -2.84201,-4.90433 -0.87432,-1.68558 -1.66971,-3.40072 -2.38822,-5.17959 -0.003,-0.007 0.003,-0.0179 0,-0.025 -0.35637,-0.88257 -0.71068,-1.77371 -1.02696,-2.67734 -0.003,-0.007 0.003,-0.0176 0,-0.0251 -0.31848,-0.9111 -0.60709,-1.82114 -0.88364,-2.75241 -0.27063,-0.91098 -0.51081,-1.82389 -0.74034,-2.75244 -0.0165,-0.0665 -0.0316,-0.13361 -0.0478,-0.2002 -0.20595,-0.84527 -0.40223,-1.71826 -0.57318,-2.57727 -0.0429,-0.21591 -0.0788,-0.43387 -0.11943,-0.65057 -0.11432,-0.60901 -0.23796,-1.21115 -0.33437,-1.82663 -0.0482,-0.30826 -0.0996,-0.616 -0.14328,-0.92582 -0.003,-0.0243 0.003,-0.0507 0,-0.0751 -0.11393,-0.81409 -0.2046,-1.62753 -0.28659,-2.45218 -0.0142,-0.14224 -0.0346,-0.28283 -0.0478,-0.42538 -0.078,-0.84375 -0.12338,-1.69818 -0.16717,-2.55225 -0.003,-0.0676 -0.0206,-0.13251 -0.0239,-0.20019 -0.0491,-1.01337 -0.0717,-2.02665 -0.0717,-3.05268 0,-1.02606 0.0226,-2.03936 0.0717,-3.05273 0.0468,-1.0033 0.11842,-2.00751 0.21493,-3.00266 8e-4,-0.008 -7.9e-4,-0.0168 0,-0.025 0.0962,-0.99112 0.21616,-1.97647 0.35825,-2.95261 0.001,-0.008 -0.001,-0.0168 0,-0.025 0.14247,-0.97601 0.3143,-1.94273 0.50154,-2.90257 0.002,-0.008 -0.002,-0.0171 0,-0.025 0.18756,-0.95975 0.41365,-1.91022 0.64479,-2.85254 0.002,-0.008 -0.002,-0.0172 0,-0.025 0.23154,-0.94223 0.49031,-1.87892 0.76425,-2.80249 0.002,-0.008 -0.002,-0.0175 0,-0.025 0.27655,-0.93105 0.56516,-1.84159 0.88364,-2.75244 0.23863,-0.68244 0.50265,-1.3563 0.76422,-2.0268 0.0297,-0.0761 0.0656,-0.14926 0.0956,-0.22519 0.1286,-0.32573 0.2482,-0.65309 0.38211,-0.97587 0.20656,-0.49724 0.42572,-0.98627 0.64484,-1.47631 0.15007,-0.33606 0.29788,-0.66826 0.45375,-1.00088 0.34334,-0.73186 0.70338,-1.46106 1.07472,-2.17693 0.003,-0.006 -0.003,-0.0187 0,-0.025 0.43712,-0.84273 0.88704,-1.65965 1.36128,-2.47719 0.47774,-0.82344 0.96654,-1.63055 1.48073,-2.42715 0.50658,-0.78544 1.03534,-1.5439 1.57622,-2.30205 0.004,-0.005 -0.004,-0.0198 0,-0.025 0.54129,-0.75816 1.12126,-1.49735 1.69565,-2.22699 0.004,-0.005 -0.004,-0.0202 0,-0.025 0.57858,-0.73447 1.1802,-1.44765 1.79118,-2.1519 1.8331,-2.11296 3.79578,-4.08646 5.89894,-5.90524 2.80402,-2.42481 5.83402,-4.5738 9.05142,-6.40567 1.60881,-0.91605 3.2697,-1.74941 4.96755,-2.50222 1.69774,-0.75271 3.42909,-1.42225 5.20636,-2.00177 0.88867,-0.28981 1.79193,-0.55609 2.6987,-0.80072 3.62692,-0.97835 7.40376,-1.59593 11.27249,-1.80159 0.96718,-0.0514 1.93434,-0.0751 2.91365,-0.0751 z"
       stroke-miterlimit="4"
       inkscape:connector-curvature="0"
       style="opacity:0.88484904;fill:#000000;stroke-width:0;stroke-miterlimit:4;filter:url(#filter3390)" />
    <path
       d="m 274.58292,101.04763 c -1.91898,14.44315 -14.27576,25.60513 -29.24166,25.60513 -14.2054,2e-5 -26.08235,-10.04081 -28.89296,-23.41325 -10.40872,2.24113 -20.44664,5.45989 -30.03869,9.53966 5.25686,13.36676 0.10943,28.94313 -12.70294,36.34035 -11.89628,6.86833 -26.6117,4.52819 -35.8173,-4.83209 -6.45605,6.00273 -12.46385,12.50617 -17.90865,19.45293 11.4624,8.90207 14.88284,25.13733 7.4225,38.05899 -7.11538,12.32423 -21.7914,17.59329 -34.79608,13.30072 -3.116707,9.58073 -5.403236,19.53932 -6.749985,29.78962 14.938425,1.4549 26.626355,14.04723 26.626355,29.36623 0,14.43033 -10.37139,26.4306 -24.060872,28.99255 1.018593,4.59024 2.199394,9.10959 3.586716,13.54981 2.67778,-0.70493 5.416031,-1.03238 8.119916,-0.97141 9.96914,0.22489 19.58577,5.50928 24.93262,14.7703 7.27777,12.60547 4.19539,28.3583 -6.60054,37.38647 6.0238,7.92887 12.73569,15.31003 20.05071,22.04334 5.56208,-6.73758 13.7315,-10.5206 22.14297,-10.71033 5.22192,-0.11777 10.51706,1.15958 15.36806,3.96033 13.45053,7.76565 18.46853,24.53326 11.85606,38.30807 9.14577,3.7865 18.69267,6.79041 28.56915,8.91697 2.81061,-13.37244 14.68757,-23.41327 28.89296,-23.41327 14.96587,0 27.32268,11.16198 29.24166,25.60513 8.94317,-1.21906 17.66641,-3.12848 26.10327,-5.70386 -4.4137,-13.05414 0.83828,-27.84326 13.22601,-34.99533 4.41004,-2.54614 9.21436,-3.81265 13.97324,-3.93542 9.56772,-0.24686 18.95785,4.18698 24.7832,12.35421 8.50787,-6.43875 16.38275,-13.67904 23.51288,-21.595 -10.22681,-9.1149 -13.02002,-24.46188 -5.90311,-36.78869 5.34683,-9.26102 14.96344,-14.54538 24.93262,-14.77027 3.97677,-0.0897 8.01596,0.63159 11.85608,2.2168 3.44577,-8.53137 6.2077,-17.4166 8.21954,-26.57654 -12.83054,-3.20685 -22.34222,-14.823 -22.34222,-28.64386 0,-14.69897 10.76519,-26.89352 24.83297,-29.14204 -1.95166,-15.01375 -5.89563,-29.39678 -11.55716,-42.8911 -13.77096,6.59775 -30.52136,1.58784 -38.28317,-11.85608 -7.25647,-12.56854 -4.19769,-28.27077 6.52582,-37.31175 -6.43756,-6.9339 -13.4519,-13.33983 -20.97229,-19.10422 -9.05151,10.65881 -24.69971,13.68951 -37.23706,6.45111 -11.78311,-6.80299 -17.10584,-20.52012 -13.79889,-33.07746 -8.98676,-2.85339 -18.30039,-4.97218 -27.87174,-6.27675 z m -22.76564,106.60503 c 1.02136,0 2.03001,0.0236 3.03872,0.0747 4.03484,0.20491 7.97383,0.81865 11.75646,1.79335 0.94568,0.24351 1.88775,0.50857 2.81457,0.79705 1.85358,0.57735 3.65924,1.24276 5.42987,1.99262 0.88538,0.37468 1.75376,0.77743 2.61533,1.19557 0.43075,0.20906 0.87039,0.42832 1.2952,0.6476 0.0593,0.0305 0.11508,0.069 0.17434,0.0996 0.57785,0.29872 1.15204,0.6046 1.71863,0.92159 0.62381,0.35071 1.23279,0.70003 1.84317,1.07103 1.62763,0.98996 3.21265,2.05063 4.73245,3.18819 0.56998,0.42636 1.13907,0.87411 1.69376,1.32011 0.34073,0.27461 0.68674,0.54002 1.02121,0.82196 0.45157,0.37964 0.88016,0.77797 1.3201,1.17065 0.82455,0.736 1.6355,1.48606 2.41607,2.26661 0.50229,0.50261 0.98575,1.02404 1.46952,1.54428 0.008,0.009 0.0169,0.0163 0.0249,0.0249 0.22372,0.24086 0.45285,0.4778 0.67252,0.72234 0.56378,0.62757 1.10717,1.26657 1.64389,1.91789 0.15066,0.18284 0.29986,0.36329 0.44836,0.54797 0.44742,0.55533 0.89258,1.12218 1.3201,1.69373 0.53271,0.71351 1.04336,1.42912 1.54425,2.16696 0.69977,1.03073 1.38199,2.08742 2.01755,3.16328 0.36218,0.6126 0.70566,1.2416 1.04611,1.86808 0.91186,1.67787 1.74139,3.38516 2.49078,5.1559 0.32846,0.77565 0.65067,1.54907 0.94648,2.34132 0.0302,0.0809 0.0449,0.16803 0.0747,0.24908 0.2627,0.71306 0.51157,1.44127 0.74723,2.16697 0.0324,0.0996 0.0678,0.199 0.0996,0.2989 0.0917,0.28758 0.16168,0.58229 0.24908,0.87176 0.21466,0.71097 0.43436,1.42011 0.62271,2.14206 0.0518,0.19869 0.0996,0.39832 0.14945,0.5978 0.12756,0.51019 0.23443,1.02894 0.34869,1.54428 0.14096,0.63592 0.27817,1.27449 0.39853,1.91789 0.006,0.0336 0.0187,0.066 0.0249,0.0996 0.0106,0.0576 0.0144,0.11664 0.0249,0.17435 0.13541,0.74347 0.2663,1.48886 0.3736,2.2417 0.007,0.0502 0.0179,0.0992 0.0249,0.14941 0.023,0.1648 0.0281,0.33298 0.0498,0.49817 0.0913,0.69537 0.18213,1.38959 0.24908,2.09225 0.0831,0.8733 0.15445,1.75657 0.19928,2.64023 0.0504,1.00061 0.0747,2.02567 0.0747,3.03873 0,2.04272 -0.0967,4.03802 -0.29892,6.02768 -7.9e-4,0.008 8.5e-4,0.0167 0,0.0249 -0.10068,0.98648 -0.22501,1.96753 -0.3736,2.93909 -0.001,0.008 10e-4,0.0168 0,0.0249 -0.14898,0.97147 -0.32739,1.93399 -0.52307,2.88928 -0.002,0.008 0.002,0.0169 0,0.0249 -0.098,0.47764 -0.21033,0.94651 -0.32379,1.41974 -0.10965,0.47428 -0.22772,0.94986 -0.34872,1.41974 -0.002,0.008 0.002,0.0171 0,0.0249 -0.24186,0.93778 -0.51093,1.87043 -0.79703,2.78968 -0.002,0.008 0.002,0.0173 0,0.0249 -0.57532,1.84582 -1.24628,3.66635 -1.99262,5.42987 -0.74939,1.77075 -1.57892,3.47803 -2.49078,5.15591 -0.003,0.006 0.004,0.0185 0,0.0249 -0.909,1.67114 -1.90366,3.28787 -2.96399,4.85699 -0.004,0.006 0.004,0.0192 0,0.0249 -0.52866,0.78171 -1.07953,1.53699 -1.64392,2.29154 -0.004,0.005 0.004,0.0195 0,0.0249 -0.56482,0.75461 -1.16913,1.49066 -1.76846,2.2168 -0.004,0.005 0.004,0.0199 0,0.0249 -2.41086,2.91901 -5.10047,5.61032 -8.0203,8.02026 -2.92438,2.41373 -6.08447,4.55289 -9.44,6.37638 -1.67786,0.91186 -3.4101,1.74142 -5.18082,2.49078 -1.77063,0.74927 -3.57629,1.41574 -5.42987,1.99262 -0.92682,0.28848 -1.86889,0.55355 -2.81457,0.79705 -3.78263,0.97385 -7.72162,1.58863 -11.75646,1.79334 -1.00871,0.0512 -2.01736,0.0747 -3.03872,0.0747 -1.02137,0 -2.03003,-0.0235 -3.03875,-0.0747 -4.03482,-0.2049 -7.97383,-0.81864 -11.75645,-1.79334 -0.94568,-0.2435 -1.88776,-0.50857 -2.81456,-0.79705 -1.85359,-0.57737 -3.65926,-1.24274 -5.42989,-1.99262 -1.77073,-0.74936 -3.50294,-1.57892 -5.1808,-2.49078 -0.8389,-0.45621 -1.65207,-0.94965 -2.46586,-1.44464 -0.81382,-0.49497 -1.62636,-1.01316 -2.41606,-1.54429 -0.78753,-0.53216 -1.55646,-1.07543 -2.31641,-1.64392 -1.51993,-1.1369 -2.98157,-2.33709 -4.38376,-3.6116 -0.69667,-0.63321 -1.37666,-1.30234 -2.04243,-1.96771 -0.67424,-0.67383 -1.32642,-1.33689 -1.96772,-2.04245 -0.004,-0.005 0.004,-0.0203 0,-0.0249 -0.6372,-0.70145 -1.26464,-1.41059 -1.86807,-2.14209 -0.60348,-0.73114 -1.2,-1.48175 -1.76845,-2.24167 -0.5684,-0.76032 -1.11178,-1.52857 -1.64392,-2.31644 -1.06436,-1.57504 -2.05215,-3.20404 -2.96402,-4.8819 -0.91182,-1.67788 -1.74139,-3.38516 -2.49075,-5.15591 -0.003,-0.007 0.003,-0.0178 0,-0.0249 -0.37166,-0.87854 -0.74118,-1.7656 -1.07105,-2.66513 -0.003,-0.007 0.003,-0.0176 0,-0.0249 -0.33217,-0.90695 -0.63314,-1.8128 -0.92158,-2.73983 -0.28223,-0.9068 -0.53275,-1.81552 -0.77214,-2.73987 -0.0172,-0.0662 -0.0329,-0.133 -0.0498,-0.19928 -0.21476,-0.84137 -0.41949,-1.71033 -0.59779,-2.56546 -0.0447,-0.21491 -0.0822,-0.43186 -0.12454,-0.64762 -0.11924,-0.6062 -0.24817,-1.20559 -0.34871,-1.81826 -0.0503,-0.30686 -0.10388,-0.61316 -0.14945,-0.9216 -0.004,-0.0242 0.004,-0.0505 0,-0.0747 -0.11882,-0.81036 -0.21339,-1.62009 -0.29889,-2.44095 -0.0148,-0.1416 -0.036,-0.28152 -0.0498,-0.42343 -0.0814,-0.8399 -0.12871,-1.69043 -0.17436,-2.54059 -0.004,-0.0673 -0.0215,-0.13189 -0.0249,-0.19925 -0.0512,-1.00876 -0.0747,-2.01739 -0.0747,-3.03875 0,-1.02136 0.0236,-2.03003 0.0747,-3.03873 0.0488,-0.99872 0.1235,-1.99835 0.22418,-2.98892 8.2e-4,-0.008 -8.2e-4,-0.0167 0,-0.0249 0.10028,-0.98658 0.22543,-1.96741 0.37361,-2.93909 0.001,-0.008 -0.001,-0.0168 0,-0.0249 0.14858,-0.97153 0.32781,-1.93384 0.52306,-2.88929 0.002,-0.008 -0.002,-0.0169 0,-0.0249 0.19563,-0.95534 0.43141,-1.90148 0.67251,-2.83948 0.002,-0.008 -0.002,-0.0172 0,-0.0249 0.24146,-0.93792 0.51134,-1.87032 0.79705,-2.78968 0.002,-0.007 -0.002,-0.0174 0,-0.0249 0.28843,-0.92679 0.58941,-1.83318 0.92158,-2.73985 0.24889,-0.67932 0.52423,-1.3501 0.79706,-2.01752 0.031,-0.0757 0.0683,-0.14857 0.0996,-0.22417 0.13411,-0.32425 0.25885,-0.65008 0.39852,-0.9714 0.21541,-0.49495 0.44401,-0.98177 0.67251,-1.46956 0.15653,-0.33453 0.3107,-0.66521 0.47324,-0.99631 0.35809,-0.7285 0.7336,-1.45437 1.12085,-2.16697 0.003,-0.006 -0.003,-0.0186 0,-0.0249 0.45589,-0.83888 0.92511,-1.65205 1.41975,-2.46586 0.49822,-0.81967 1.008,-1.6231 1.54427,-2.41605 0.52835,-0.78184 1.07985,-1.53683 1.64392,-2.2915 0.004,-0.005 -0.004,-0.0197 0,-0.0249 0.5645,-0.7547 1.16939,-1.49049 1.76845,-2.21678 0.004,-0.005 -0.004,-0.0201 0,-0.0249 0.60342,-0.73109 1.23086,-1.44101 1.86807,-2.14206 1.91179,-2.10329 3.95874,-4.06776 6.15221,-5.87822 2.92439,-2.41371 6.08449,-4.55289 9.44003,-6.37637 1.67786,-0.91184 3.41007,-1.7414 5.1808,-2.49077 1.77063,-0.74928 3.5763,-1.41573 5.42989,-1.99262 0.9268,-0.28848 1.86888,-0.55354 2.81456,-0.79705 3.78262,-0.97388 7.72163,-1.58863 11.75645,-1.79335 1.00872,-0.0512 2.01738,-0.0747 3.03874,-0.0747 z"
       id="path2274"
       stroke-miterlimit="4"
       inkscape:connector-curvature="0"
       style="fill:#c0c0c0;stroke-width:0;stroke-miterlimit:4" />
    <path
       d="m 251.80481,130.46365 c -75.2977,0 -136.39465,61.12186 -136.39465,136.41953 0,75.29773 61.09695,136.39468 136.39465,136.39468 75.2977,6e-5 136.41956,-61.09695 136.41956,-136.39468 0,-75.29768 -61.12186,-136.41953 -136.41956,-136.41953 z m 0.0249,77.18901 c 1.02136,0 2.03003,0.0236 3.03874,0.0747 4.03479,0.20491 7.97382,0.81865 11.75644,1.79335 0.94571,0.24351 1.88776,0.50857 2.81457,0.79705 1.85358,0.57735 3.65924,1.24276 5.42987,1.99262 2.6561,1.12405 5.20514,2.45138 7.64667,3.93541 1.6276,0.98996 3.21265,2.05063 4.73248,3.18819 2.27988,1.70538 4.44169,3.56993 6.45108,5.57933 4.0185,4.02082 7.45203,8.61413 10.18726,13.64943 0.91187,1.67787 1.74139,3.38516 2.49078,5.15589 2.62775,6.20507 4.22437,12.95661 4.58301,20.02582 0.0504,1.00061 0.0747,2.02567 0.0747,3.03873 0,2.04272 -0.0967,4.03802 -0.29889,6.02768 -8.2e-4,0.008 8.3e-4,0.0167 0,0.0249 -0.10071,0.98648 -0.225,1.96753 -0.37362,2.93909 -10e-4,0.008 0.001,0.0168 0,0.0249 -0.14899,0.97147 -0.3274,1.93399 -0.52308,2.88928 -0.002,0.008 0.002,0.0169 0,0.0249 -0.19601,0.9552 -0.431,1.90158 -0.67248,2.83947 -0.002,0.008 0.002,0.0171 0,0.0249 -0.24188,0.93777 -0.51093,1.87042 -0.79706,2.78967 -0.002,0.008 0.002,0.0173 0,0.0249 -1.15298,3.69913 -2.66339,7.23685 -4.4834,10.58579 -0.003,0.006 0.004,0.0185 0,0.0249 -0.90896,1.67114 -1.90365,3.28787 -2.96399,4.85699 -0.004,0.006 0.004,0.0192 0,0.0249 -0.52865,0.78171 -1.07953,1.53699 -1.64392,2.29154 -0.004,0.005 0.004,0.0195 0,0.0249 -0.56482,0.75461 -1.1691,1.49066 -1.76843,2.2168 -0.004,0.005 0.004,0.0199 0,0.0249 -1.20343,1.45709 -2.47571,2.8493 -3.81091,4.18448 -0.6738,0.67422 -1.36179,1.32645 -2.06736,1.96771 -0.70105,0.63724 -1.41088,1.26462 -2.14205,1.86807 -2.92438,2.41373 -6.08448,4.55289 -9.44001,6.37638 -1.67785,0.91186 -3.41006,1.74142 -5.18081,2.49078 -1.77063,0.74927 -3.5763,1.41574 -5.42987,1.99262 -0.92682,0.28848 -1.86887,0.55355 -2.81458,0.79705 -3.78262,0.97385 -7.72165,1.58863 -11.75644,1.79334 -1.00871,0.0512 -2.01738,0.0747 -3.03874,0.0747 -1.02136,0 -2.03003,-0.0235 -3.03874,-0.0747 -4.03481,-0.2049 -7.97383,-0.81863 -11.75644,-1.79334 -0.9457,-0.2435 -1.88774,-0.50857 -2.81458,-0.79705 -1.85359,-0.57737 -3.65925,-1.24274 -5.42988,-1.99262 -2.65608,-1.12405 -5.20511,-2.45138 -7.64667,-3.93542 -1.62759,-0.98996 -3.21263,-2.05063 -4.73247,-3.18821 -3.04484,-2.27755 -5.84152,-4.83682 -8.3939,-7.64663 -0.63721,-0.70145 -1.26465,-1.41059 -1.86808,-2.14209 -2.41394,-2.92459 -4.55269,-6.08429 -6.37639,-9.44 -0.91181,-1.67789 -1.74139,-3.38517 -2.49075,-5.15592 -0.003,-0.007 0.003,-0.0178 0,-0.0249 -0.37164,-0.87854 -0.74118,-1.76559 -1.07103,-2.66513 -0.003,-0.007 0.003,-0.0176 0,-0.0249 -0.33217,-0.90696 -0.63316,-1.81281 -0.92158,-2.73984 -1.44471,-4.64166 -2.33612,-9.51871 -2.59041,-14.57102 -0.0512,-1.00875 -0.0747,-2.01739 -0.0747,-3.03875 0,-2.05115 0.095,-4.05496 0.29889,-6.05258 0.10029,-0.98658 0.22543,-1.96741 0.37361,-2.93909 0.001,-0.008 -0.001,-0.0168 0,-0.0249 0.14857,-0.97153 0.3278,-1.93384 0.52305,-2.88929 0.002,-0.008 -0.002,-0.0169 0,-0.0249 0.19565,-0.95534 0.43141,-1.90148 0.67252,-2.83948 0.002,-0.008 -0.002,-0.0172 0,-0.0249 0.24145,-0.93792 0.51134,-1.87032 0.79706,-2.78968 0.002,-0.007 -0.002,-0.0174 0,-0.0249 0.28842,-0.92679 0.58941,-1.83318 0.92158,-2.73985 0.9991,-2.72698 2.18971,-5.34825 3.56178,-7.87084 0.45589,-0.83888 0.92513,-1.65205 1.41976,-2.46586 0.49823,-0.81967 1.00801,-1.6231 1.54428,-2.41605 0.52834,-0.78184 1.07983,-1.53683 1.64391,-2.2915 0.004,-0.005 -0.004,-0.0197 0,-0.0249 0.56451,-0.7547 1.16938,-1.49049 1.76844,-2.21678 0.004,-0.005 -0.004,-0.0201 0,-0.0249 0.60343,-0.73109 1.23087,-1.44101 1.86808,-2.14206 0.63726,-0.70108 1.27299,-1.37262 1.94281,-2.04243 0.67384,-0.67423 1.36181,-1.32641 2.06733,-1.96772 0.70108,-0.63725 1.41091,-1.26458 2.14206,-1.86807 2.9244,-2.41371 6.08449,-4.55289 9.44004,-6.37637 1.67785,-0.91184 3.41009,-1.7414 5.1808,-2.49077 1.77063,-0.74928 3.57629,-1.41573 5.42988,-1.99262 0.92684,-0.28848 1.86888,-0.55354 2.81458,-0.79705 3.78261,-0.97388 7.72163,-1.58863 11.75644,-1.79335 1.00871,-0.0512 2.01738,-0.0747 3.03874,-0.0747 z"
       id="path2249"
       stroke-miterlimit="4"
       inkscape:connector-curvature="0"
       style="opacity:0.79393897;fill:#a9a9a9;stroke-width:0;stroke-miterlimit:4" />
    <path
       d="m 251.80481,148.22284 c -65.49268,0 -118.63545,53.16769 -118.63545,118.66037 0,65.49267 53.14279,118.63547 118.63545,118.63547 65.49268,0 118.6604,-53.1428 118.6604,-118.63547 0,-65.49268 -53.16773,-118.66037 -118.6604,-118.66037 z m 0.0249,59.42982 c 32.68345,0 59.20564,26.54708 59.20564,59.23055 0,32.68347 -26.52218,59.20566 -59.20564,59.20566 -32.68347,0 -59.20565,-26.54709 -59.20565,-59.23056 0,-32.68348 26.52218,-59.20565 59.20565,-59.20565 z"
       id="path2252"
       stroke-miterlimit="4"
       style="opacity:0.79393897;fill:url(#radialGradient3844);stroke-width:0;stroke-miterlimit:4"
       inkscape:connector-curvature="0" />
    <path
       id="path3318"
       d="m 251.81728,194.34175 c -40.09227,0 -72.63091,32.48604 -72.63091,72.51631 0,40.03025 32.53865,72.54178 72.63091,72.54178 40.09227,0 72.63087,-32.48605 72.63087,-72.51632 l 0,-0.0255 c 0,-40.03027 -32.5386,-72.51631 -72.63087,-72.51631 z m 0,16.42311 c 31.07008,0 56.28639,25.14116 56.28639,56.11865 0,30.97748 -25.21634,56.09323 -56.28639,56.09323 -31.07007,0 -56.2864,-25.14117 -56.2864,-56.11868 0,-30.97751 25.21633,-56.0932 56.2864,-56.0932 z"
       stroke-miterlimit="4"
       inkscape:connector-curvature="0"
       style="opacity:0.58787902;fill:#696969;stroke-width:0;stroke-miterlimit:4;filter:url(#filter3340)" />
    <path
       d="m 251.81728,195.92113 c -39.10233,0 -70.83756,31.77862 -70.83756,70.93718 0,39.15854 31.73523,70.96209 70.83756,70.96209 39.10231,0 70.83754,-31.77865 70.83754,-70.93719 l 0,-0.0249 c 0,-39.15856 -31.7352,-70.93718 -70.83754,-70.93718 z m 0,16.06547 c 30.30293,0 54.89662,24.59371 54.89662,54.89661 0,30.30291 -24.59372,54.8717 -54.89662,54.8717 -30.30292,0 -54.89663,-24.59369 -54.89663,-54.8966 0,-30.30292 24.59371,-54.87171 54.89663,-54.87171 z"
       id="path3313"
       stroke-miterlimit="4"
       inkscape:connector-curvature="0"
       style="fill:#c0c0c0;stroke-width:0;stroke-miterlimit:4" />
  </g>
  <path
     style="opacity:0.924;fill:#ed3431;fill-opacity:1;stroke:#cdcdcd;stroke-width:0.05453938000000000;stroke-miterlimit:4;stroke-opacity:1;stroke-dasharray:none"
     d="m 9.999005,3.9460732 c -3.5719023,0 -6.4663257,2.8961266 -6.4663257,6.4680288 0,3.571902 2.8944234,6.466325 6.4663257,6.466325 3.571902,0 6.46803,-2.894423 6.46803,-6.466325 0,-3.5719022 -2.896128,-6.4680288 -6.46803,-6.4680288 z M 9.8882219,7.4962454 c 1.6191611,0 2.9331961,1.3123308 2.9331961,2.9314916 0,1.619161 -1.314035,2.931492 -2.9331961,2.931492 -1.6191613,0 -2.9314916,-1.312331 -2.9314916,-2.931492 0,-1.6191608 1.3123303,-2.9314916 2.9314916,-2.9314916 z"
     id="path3793"
     inkscape:connector-curvature="0" />
</svg>
